<svg aria-hidden="true" style="position: absolute; width: 0; height: 0; overflow: hidden;" version="1.1" xmlns="http://www.w3.org/2000/svg" xmlns:xlink="http://www.w3.org/1999/xlink">
<defs>
    <symbol id="icon-book" viewBox="0 0 24 24">
        <path d="M6 22h15v-2h-14.988c-0.462-0.012-1.012-0.195-1.012-1s0.55-0.988 1.012-1h14.988v-14c0-1.103-0.897-2-2-2h-13c-1.206 0-3 0.799-3 3v14c0 2.201 1.794 3 3 3zM5 5c0-0.805 0.55-0.988 1-1h13v12h-14v-11z"></path>
        <path d="M8 6h9v2h-9v-2z"></path>
    </symbol>
    <symbol id="icon-donate-heart" viewBox="0 0 24 24">
        <path d="M4 21h9.62c0.577 0 1.147-0.124 1.672-0.366s0.99-0.593 1.365-1.031l5.102-5.952c0.107-0.124 0.181-0.273 0.217-0.433s0.032-0.327-0.012-0.485c-0.044-0.158-0.126-0.303-0.238-0.422s-0.253-0.208-0.409-0.26l-1.968-0.656c-0.476-0.155-0.982-0.19-1.474-0.102s-0.956 0.295-1.349 0.605l-3.185 2.547-0.617-1.235c-0.33-0.666-0.841-1.226-1.473-1.616s-1.361-0.596-2.105-0.594h-5.146c-1.103 0-2 0.897-2 2v6c0 1.103 0.897 2 2 2zM4 13h5.146c0.763 0 1.448 0.423 1.789 1.105l0.447 0.895h-4.382v2h6.014c0.154-0.002 0.305-0.040 0.442-0.11l0.003-0.001 0.004-0.002h0.003l0.002-0.001h0.004l0.001-0.001c0.009 0.003 0.003-0.001 0.003-0.001 0.010 0 0.002-0.001 0.002-0.001h0.001l0.002-0.001 0.003-0.001 0.004-0.002 0.003-0.001 0.002-0.001c0.003 0 0.002-0.001 0.002-0.001l0.003-0.002 0.004-0.002 0.003-0.001 0.002-0.001h0.001l0.002-0.001 0.003-0.001 0.002-0.001c0.009-0.001 0.003-0.001 0.003-0.001l0.002-0.001c0.039-0.023 0.075-0.049 0.11-0.078l4.146-3.317c0.262-0.208 0.623-0.273 0.94-0.167l0.557 0.186-4.133 4.823c-0.19 0.216-0.424 0.389-0.686 0.507s-0.546 0.18-0.834 0.18h-9.62v-6zM15.983 2c-0.163 0.002-1.006 0.039-1.983 0.705-0.951-0.648-1.774-0.7-1.968-0.704l-0.030-0.001h-0.004c-0.801 0-1.555 0.313-2.119 0.878-0.566 0.567-0.879 1.32-0.879 2.122s0.313 1.555 0.861 2.104l3.414 3.586c0.094 0.098 0.207 0.175 0.331 0.228s0.259 0.080 0.394 0.080c0.135-0 0.269-0.027 0.394-0.081s0.237-0.131 0.331-0.228l3.396-3.568c0.567-0.566 0.879-1.319 0.879-2.121s-0.313-1.555-0.878-2.121c-0.278-0.279-0.608-0.501-0.972-0.652s-0.754-0.228-1.148-0.227h-0.019zM17 5c0 0.267-0.104 0.518-0.311 0.725l-2.689 2.825-2.707-2.843c-0.189-0.189-0.293-0.44-0.293-0.707s0.104-0.518 0.294-0.708c0.181-0.184 0.427-0.289 0.685-0.292 0.025 0.001 0.502 0.032 1.067 0.485 0.081 0.065 0.163 0.139 0.247 0.222l0.707 0.707 0.707-0.707c0.084-0.083 0.166-0.157 0.247-0.222 0.529-0.425 0.976-0.478 1.052-0.484 0.13-0 0.259 0.026 0.38 0.076s0.229 0.124 0.321 0.216c0.189 0.189 0.293 0.44 0.293 0.707z"></path>
    </symbol>
    <symbol id="icon-mail" viewBox="0 0 24 24">
        <path d="M20 4h-16c-1.103 0-2 0.897-2 2v12c0 1.103 0.897 2 2 2h16c1.103 0 2-0.897 2-2v-12c0-1.103-0.897-2-2-2zM20 6v0.511l-8 6.223-8-6.222v-0.512h16zM4 18v-8.956l7.386 5.745c0.175 0.138 0.391 0.212 0.614 0.212s0.439-0.075 0.614-0.212l7.386-5.745 0.002 8.956h-16.002z"></path>
    </symbol>
    <symbol id="icon-Facebook" viewBox="0 0 24 24">
        <path d="M22 12.304c0-5.557-4.477-10.061-10-10.061s-10 4.505-10 10.061c0 5.022 3.657 9.184 8.438 9.939v-7.031h-2.539v-2.908h2.539v-2.217c0-2.522 1.493-3.914 3.777-3.914 1.094 0 2.238 0.197 2.238 0.197v2.476h-1.261c-1.242 0-1.63 0.776-1.63 1.571v1.887h2.773l-0.443 2.908h-2.33v7.031c4.781-0.755 8.438-4.917 8.438-9.939z"></path>
    </symbol>
    <symbol id="icon-Instagram" viewBox="0 0 24 24">
        <path d="M11.999 4.621c2.404 0 2.689 0.011 3.634 0.053 0.879 0.039 1.353 0.186 1.67 0.309 0.419 0.162 0.72 0.359 1.033 0.672 0.317 0.317 0.51 0.615 0.675 1.034 0.123 0.317 0.27 0.794 0.309 1.67 0.042 0.949 0.053 1.234 0.053 3.635s-0.011 2.689-0.053 3.635c-0.039 0.879-0.186 1.353-0.309 1.67-0.162 0.418-0.358 0.72-0.672 1.033-0.317 0.317-0.615 0.51-1.033 0.675-0.317 0.123-0.795 0.27-1.67 0.309-0.949 0.042-1.234 0.053-3.635 0.053s-2.689-0.011-3.635-0.053c-0.879-0.039-1.353-0.186-1.67-0.309-0.418-0.162-0.72-0.358-1.034-0.672-0.317-0.317-0.51-0.615-0.675-1.033-0.123-0.317-0.271-0.795-0.309-1.67-0.042-0.949-0.053-1.234-0.053-3.635s0.011-2.689 0.053-3.635c0.039-0.879 0.186-1.353 0.309-1.67 0.162-0.418 0.359-0.72 0.672-1.034 0.317-0.317 0.615-0.51 1.034-0.675 0.317-0.123 0.794-0.271 1.67-0.309 0.945-0.042 1.231-0.053 3.635-0.053h0.001zM11.999 3.001c-2.443 0-2.749 0.011-3.709 0.053-0.956 0.042-1.614 0.197-2.183 0.418-0.594 0.232-1.097 0.538-1.596 1.040-0.503 0.499-0.809 1.002-1.040 1.592-0.222 0.573-0.376 1.227-0.418 2.183-0.042 0.963-0.053 1.269-0.053 3.712s0.011 2.748 0.053 3.709c0.042 0.956 0.197 1.614 0.418 2.183 0.232 0.594 0.538 1.097 1.040 1.596 0.499 0.499 1.002 0.809 1.592 1.037 0.573 0.222 1.227 0.376 2.183 0.418 0.96 0.042 1.265 0.053 3.709 0.053s2.749-0.011 3.709-0.053c0.956-0.042 1.614-0.197 2.183-0.418 0.591-0.228 1.093-0.538 1.592-1.037s0.809-1.002 1.037-1.592c0.222-0.573 0.376-1.227 0.418-2.183 0.042-0.96 0.053-1.266 0.053-3.709s-0.011-2.749-0.053-3.709c-0.042-0.956-0.197-1.614-0.418-2.183-0.222-0.598-0.528-1.1-1.030-1.6-0.499-0.499-1.002-0.809-1.592-1.037-0.573-0.222-1.227-0.376-2.183-0.418-0.963-0.046-1.269-0.056-3.712-0.056l-0.001 0.001z"></path>
        <path d="M11.998 7.377c-2.552 0-4.623 2.070-4.623 4.623s2.070 4.623 4.623 4.623c2.552 0 4.623-2.070 4.623-4.623s-2.070-4.623-4.623-4.623zM11.998 14.998c-1.656 0-2.998-1.342-2.998-2.998s1.343-2.998 2.998-2.998c1.656 0 2.998 1.343 2.998 2.998s-1.343 2.998-2.998 2.998z"></path>
        <path d="M17.882 7.194c0 0.596-0.483 1.079-1.079 1.079s-1.079-0.483-1.079-1.079 0.483-1.079 1.079-1.079c0.596 0 1.079 0.483 1.079 1.079z"></path>
    </symbol>
    <symbol id="icon-LinkedIn" viewBox="0 0 24 24">
        <path d="M19.313 3h-14.625c-0.928 0-1.688 0.759-1.688 1.688v14.625c0 0.928 0.759 1.688 1.688 1.688h14.625c0.928 0 1.688-0.759 1.688-1.688v-14.625c0-0.928-0.759-1.688-1.688-1.688zM9.75 17.625h-2.25v-7.875h2.25v7.875zM8.625 8.625c-0.622 0-1.125-0.503-1.125-1.125s0.503-1.125 1.125-1.125c0.622 0 1.125 0.503 1.125 1.125s-0.503 1.125-1.125 1.125zM17.625 17.625h-2.25v-4.5c0-0.622-0.503-1.125-1.125-1.125s-1.125 0.503-1.125 1.125v4.5h-2.25v-7.875h2.25v1.396c0.464-0.636 1.174-1.396 1.969-1.396 1.399 0 2.531 1.259 2.531 2.813v5.063z"></path>
    </symbol>
    <symbol id="icon-leaf" viewBox="0 0 24 24">
        <path d="M21.88 2.15l-1.2 0.4c-2.057 0.715-4.253 0.934-6.41 0.64-2.267-0.352-4.587-0.039-6.68 0.9-1.11 0.472-2.083 1.215-2.833 2.16s-1.25 2.062-1.457 3.25c-0.211 1.142-0.189 2.316 0.063 3.45s0.731 2.205 1.407 3.15c-0.060 0.21-0.12 0.42-0.17 0.63-0.406 1.727-0.608 3.496-0.6 5.27h2c0.094-1.452 0.291-2.896 0.59-4.32 1.387 0.749 2.943 1.131 4.52 1.11 1.47-0.001 2.926-0.297 4.28-0.87 7.61-3.25 6.61-14.060 6.61-14.51l-0.12-1.26zM14.61 16.080c-2.61 1.11-5.73 0.92-7.48-0.45 0.296-0.989 0.702-1.942 1.21-2.84 0.395-0.647 0.861-1.247 1.39-1.79 0.54-0.549 1.148-1.026 1.81-1.42 1.367-0.817 2.883-1.355 4.46-1.58v-1c-1.814-0.063-3.617 0.307-5.26 1.080-1.68 0.82-3.104 2.081-4.12 3.65-0.377 0.599-0.711 1.224-1 1.87-0.463-1.186-0.595-2.475-0.38-3.73 0.141-0.878 0.503-1.707 1.052-2.406s1.268-1.248 2.088-1.594c1.196-0.559 2.5-0.846 3.82-0.84 0.62 0 1.23 0.060 1.87 0.11 2.004 0.259 4.039 0.14 6-0.35-0.070 2.76-0.57 9.21-5.46 11.29z"></path>
    </symbol>
    <symbol id="icon-map" viewBox="0 0 24 24">
        <path d="M12 14c2.206 0 4-1.794 4-4s-1.794-4-4-4c-2.206 0-4 1.794-4 4s1.794 4 4 4zM12 8c1.103 0 2 0.897 2 2s-0.897 2-2 2c-1.103 0-2-0.897-2-2s0.897-2 2-2z"></path>
        <path d="M11.42 21.814c0.169 0.121 0.372 0.186 0.58 0.186s0.411-0.065 0.58-0.186c0.304-0.215 7.449-5.374 7.42-11.814 0-4.411-3.589-8-8-8s-8 3.589-8 7.995c-0.029 6.445 7.116 11.604 7.42 11.819zM12 4c3.309 0 6 2.691 6 6.005 0.021 4.438-4.388 8.423-6 9.73-1.611-1.308-6.021-5.294-6-9.735 0-3.309 2.691-6 6-6z"></path>
    </symbol>
    <symbol id="icon-menu" viewBox="0 0 24 24">
        <path d="M4 6h16v2h-16v-2zM4 11h16v2h-16v-2zM4 16h16v2h-16v-2z"></path>
    </symbol>
    <symbol id="icon-phone" viewBox="0 0 24 24">
        <path d="M17.707 12.293c-0.093-0.093-0.203-0.167-0.324-0.217s-0.251-0.076-0.383-0.076c-0.131 0-0.261 0.026-0.383 0.076s-0.231 0.124-0.324 0.217l-1.594 1.594c-0.739-0.22-2.118-0.72-2.992-1.594s-1.374-2.253-1.594-2.992l1.594-1.594c0.093-0.093 0.167-0.203 0.217-0.324s0.076-0.251 0.076-0.383c0-0.131-0.026-0.261-0.076-0.383s-0.124-0.232-0.217-0.324l-4-4c-0.093-0.093-0.203-0.167-0.324-0.217s-0.251-0.076-0.383-0.076c-0.131 0-0.261 0.026-0.383 0.076s-0.232 0.124-0.324 0.217l-2.712 2.712c-0.38 0.38-0.594 0.902-0.586 1.435 0.023 1.424 0.4 6.37 4.298 10.268s8.844 4.274 10.269 4.298h0.028c0.528 0 1.027-0.208 1.405-0.586l2.712-2.712c0.093-0.093 0.167-0.203 0.217-0.324s0.076-0.251 0.076-0.383c0-0.131-0.026-0.261-0.076-0.383s-0.124-0.232-0.217-0.324l-4-4.001zM17.58 19.005c-1.248-0.021-5.518-0.356-8.873-3.712-3.366-3.366-3.692-7.651-3.712-8.874l2.005-2.005 2.586 2.586-1.293 1.293c-0.118 0.117-0.204 0.262-0.251 0.422s-0.055 0.328-0.021 0.49c0.024 0.115 0.611 2.842 2.271 4.502s4.387 2.247 4.502 2.271c0.163 0.035 0.331 0.028 0.491-0.019s0.304-0.134 0.421-0.252l1.294-1.293 2.586 2.586-2.006 2.005z"></path>
    </symbol>
    <symbol id="icon-star-f" viewBox="0 0 24 24">
        <path d="M10.885 0.778c0.413-1.037 1.817-1.037 2.23 0l2.434 6.123c0.174 0.437 0.567 0.736 1.019 0.774l6.319 0.53c1.071 0.090 1.505 1.487 0.689 2.218l-4.815 4.314c-0.344 0.308-0.494 0.792-0.389 1.252l1.471 6.45c0.249 1.093-0.887 1.957-1.804 1.371l-5.41-3.457c-0.387-0.247-0.873-0.247-1.259 0l-5.41 3.457c-0.917 0.586-2.053-0.278-1.804-1.371l1.471-6.45c0.105-0.461-0.045-0.944-0.389-1.252l-4.815-4.314c-0.816-0.731-0.382-2.129 0.689-2.218l6.319-0.53c0.451-0.038 0.845-0.337 1.018-0.774l2.435-6.123z"></path>
    </symbol>
    <symbol id="icon-star-o" viewBox="0 0 24 24">
        <path stroke-linejoin="miter" stroke-linecap="butt" stroke-miterlimit="4" stroke-width="2" d="M12 1c0.038 0 0.072 0.011 0.099 0.028 0.023 0.015 0.058 0.047 0.087 0.119l2.435 6.123c0.307 0.772 1.017 1.329 1.864 1.4l6.319 0.53c0.049 0.004 0.078 0.020 0.102 0.040 0.028 0.025 0.060 0.068 0.079 0.129 0.039 0.126 0.006 0.236-0.075 0.309l-4.815 4.313c-0.622 0.558-0.881 1.415-0.697 2.22l1.472 6.45c0.032 0.14-0.021 0.24-0.096 0.297-0.038 0.029-0.073 0.039-0.098 0.041-0.018 0.001-0.048-0.001-0.098-0.032l-5.41-3.456c-0.715-0.457-1.621-0.457-2.336 0l-5.41 3.456c-0.049 0.031-0.080 0.033-0.098 0.032-0.024-0.002-0.059-0.012-0.098-0.041-0.075-0.057-0.128-0.157-0.096-0.297l1.472-6.45c0.184-0.805-0.075-1.662-0.697-2.22l-4.814-4.313c-0.081-0.073-0.114-0.183-0.075-0.309 0.019-0.061 0.051-0.104 0.079-0.129 0.023-0.020 0.052-0.036 0.102-0.040l6.319-0.53c0.848-0.071 1.557-0.628 1.864-1.4l2.435-6.123c0.029-0.072 0.064-0.104 0.087-0.119 0.027-0.018 0.061-0.028 0.099-0.028z"></path>
    </symbol>
    <symbol id="icon-X" viewBox="0 0 24 24">
        <path d="M17.176 4.243h2.76l-6.030 6.777 7.094 9.223h-5.554l-4.35-5.593-4.978 5.593h-2.762l6.45-7.249-6.805-8.751h5.695l3.932 5.113 4.548-5.113zM16.207 18.618h1.53l-9.872-12.836h-1.641l9.984 12.836z"></path>
    </symbol>
    <symbol id="icon-Youtube" viewBox="0 0 24 24">
        <path d="M21.593 7.203c-0.114-0.423-0.336-0.808-0.646-1.118s-0.694-0.533-1.116-0.648c-1.566-0.43-7.831-0.437-7.831-0.437s-6.264-0.007-7.831 0.404c-0.422 0.12-0.806 0.347-1.115 0.658s-0.533 0.697-0.651 1.12c-0.413 1.566-0.417 4.814-0.417 4.814s-0.004 3.264 0.406 4.814c0.23 0.857 0.905 1.534 1.763 1.765 1.582 0.43 7.83 0.437 7.83 0.437s6.265 0.007 7.831-0.403c0.423-0.115 0.808-0.338 1.118-0.647s0.534-0.694 0.649-1.116c0.414-1.565 0.417-4.812 0.417-4.812s0.020-3.265-0.407-4.831zM9.996 15.005l0.005-6 5.207 3.005-5.212 2.995z"></path>
    </symbol>
</defs>
</svg>
